<svg xmlns="http://www.w3.org/2000/svg" aria-label="Genesy AI logo" width="32" height="32" viewBox="0 0 32 32"
  fill="none">
  <title>Genesy AI logo</title>

  <path fill="#3003af"
    d="m6.975 0 .295.082c.314.092.545.297.743.55.943 1.212 1.883 2.427 2.835 3.632.194.246.416.475.655.676.627.527 1.372.65 2.156.567 1.213-.13 2.275-.704 3.358-1.208.984-.457 1.96-.933 3.023-1.181a8.429 8.429 0 0 1 3.088-.146c2.106.284 3.942 1.17 5.625 2.43.903.676 1.775 1.392 2.665 2.086.282.22.477.49.537.852.005.026.03.049.046.073v.271c-.024.078-.049.155-.07.233-.252.925-1.186 1.249-1.948.666-.764-.585-1.509-1.197-2.285-1.767-1.07-.786-2.176-1.52-3.457-1.92-.716-.225-1.44-.438-2.195-.433-.991.006-1.935.26-2.842.654-1.03.447-2.047.92-3.084 1.345-.927.38-1.902.608-2.902.607-1.403-.002-2.619-.509-3.546-1.602-.688-.81-1.333-1.655-2.002-2.481-.495-.611-1.003-1.211-1.495-1.825-.223-.277-.39-.585-.39-.962C5.786.63 6.15.173 6.7.057c.05-.01.095-.037.142-.057h.134ZM11.3 32c-.337-.046-.674-.089-1.01-.14-1.325-.2-2.485-.771-3.525-1.616-.939-.761-1.752-1.649-2.542-2.564-1.018-1.18-2.056-2.341-3.086-3.51-.292-.333-.536-.683-.521-1.161.015-.47.276-.875.692-1.04.46-.183.853-.104 1.19.282.928 1.059 1.838 2.135 2.768 3.193.796.905 1.585 1.816 2.515 2.592 1.209 1.009 2.58 1.455 4.142 1.402 1.377-.047 2.646-.48 3.905-.984 1.93-.773 3.858-1.55 5.796-2.304a6.404 6.404 0 0 1 1.31-.339c.285-.045.593-.011.88.047.573.117.84.452.916 1.067.059.476-.205 1.003-.652 1.212-.23.107-.492.166-.745.204-.923.138-1.757.537-2.61.88-1.724.692-3.441 1.4-5.176 2.058-.937.356-1.912.595-2.917.679l-.483.042H11.3Z">
  </path>
  <path fill="#3003af"
    d="M13.053 23.601c.981.007 1.893-.3 2.791-.645 2.156-.828 4.307-1.673 6.461-2.507.32-.123.649-.22.97-.34.713-.268 1.411.359 1.448 1.021.03.558-.27 1.163-.761 1.361a1169.829 1169.829 0 0 1-7.788 3.11 9.381 9.381 0 0 1-2.843.637c-1.376.089-2.618-.312-3.637-1.267-.535-.5-1.001-1.083-1.461-1.66-1.002-1.255-1.963-2.544-2.972-3.794-1.388-1.72-2.805-3.415-4.21-5.12-.273-.333-.555-.658-.813-1.002-.329-.437-.312-1.103.02-1.58.245-.356.845-.55 1.29-.374.199.08.393.225.534.39.852.997 1.678 2.017 2.53 3.014.785.917 1.592 1.812 2.578 2.517.674.482 1.416.792 2.209 1.004 1.465.39 2.884.164 4.292-.287 1.804-.578 3.535-1.345 5.274-2.096.956-.413 1.918-.823 2.963-.97.657-.092 1.304-.044 1.956.043 1.558.21 2.926.887 4.134 1.867 1.16.94 2.254 1.965 3.364 2.968.348.314.55.726.482 1.22-.157 1.118-1.304 1.28-1.884.855-.307-.224-.57-.509-.85-.77-1.217-1.137-2.472-2.226-3.942-3.014-1.255-.672-2.57-.813-3.901-.286-1.72.68-3.417 1.416-5.13 2.112-1.029.418-2.075.779-3.164 1.011-.95.203-1.905.188-2.863.165-.355-.01-.386.02-.253.364.434 1.121 1.257 1.76 2.4 1.982.254.05.517.048.776.07v.001Z">
  </path>
  <path fill="#3003af"
    d="M.987 3.611c.029-.423.101-.83.55-1.018.467-.196 1.137-.073 1.423.287C4 4.184 5.024 5.5 6.058 6.808c1.276 1.612 2.547 3.229 3.84 4.827.529.654 1.278.917 2.077 1.073.964.188 1.841-.117 2.695-.484 1.152-.495 2.277-1.056 3.423-1.568.927-.415 1.82-.918 2.813-1.173.697-.179 1.396-.302 2.125-.308 1.828-.015 3.411.636 4.877 1.684 1.111.794 2.048 1.777 2.99 2.757.229.236.463.468.68.714.26.293.416.633.422 1.038.007.51-.206.9-.656 1.108-.475.22-.967.22-1.371-.164-.34-.324-.643-.687-.962-1.032-.887-.957-1.836-1.84-2.94-2.537-.935-.59-1.942-.98-3.053-.996-.697-.011-1.368.2-2.004.465-1.233.514-2.45 1.068-3.669 1.615-.914.41-1.807.867-2.783 1.124a7.618 7.618 0 0 1-3.064.195c-1.412-.205-2.53-.945-3.42-2.05A588.877 588.877 0 0 1 4.505 8.63C3.435 7.275 2.382 5.905 1.32 4.543c-.213-.274-.36-.569-.334-.932Z">
  </path>
</svg>